<?xml version="1.0" encoding="iso-8859-1"?>
<!-- Uploaded to: SVG Repo, www.svgrepo.com, Generator: SVG Repo Mixer Tools -->
<!DOCTYPE svg PUBLIC "-//W3C//DTD SVG 1.1//EN" "http://www.w3.org/Graphics/SVG/1.1/DTD/svg11.dtd">
<svg fill="#000000" version="1.1" id="Capa_1" xmlns="http://www.w3.org/2000/svg" xmlns:xlink="http://www.w3.org/1999/xlink" 
	 width="800px" height="800px" viewBox="0 0 56.48 56.48" xml:space="preserve"
	>
<g>
	<path d="M21.267,27.921v-3.18c0.516-0.158,1.505-0.236,2.189,0.247c0.348,0.244,0.55,0.597,0.628,0.978
		c0.13,0.634-0.115,1.351-0.818,1.797C22.817,28.048,21.66,28.021,21.267,27.921z M23.436,28.576
		c-0.501-0.324-1.754-0.302-2.169-0.204v3.41c0.555,0.171,1.61,0.304,2.347-0.226C24.497,30.925,24.683,29.38,23.436,28.576z
		 M56.48,11.393v33.695c0,0.803-0.65,1.454-1.454,1.454H1.454C0.65,46.542,0,45.89,0,45.087V11.393c0-0.803,0.65-1.454,1.454-1.454
		h53.572C55.83,9.939,56.48,10.591,56.48,11.393z M39.688,24.231l4.002,4.002l4.001-4.002H39.688z M13.034,24.224h-3.28v0.146h0.388
		c0.409,0,0.713,0.325,0.713,0.674v3.106H6.969v-3.106c0-0.349,0.313-0.674,0.713-0.674h0.387v-0.146h-3.28v0.146h0.389
		c0.403,0,0.713,0.325,0.713,0.674v3.466v2.903c0,0.354-0.31,0.675-0.713,0.675h-0.39v0.146h3.28v-0.146H7.681
		c-0.399,0-0.713-0.32-0.713-0.675c0,0,0.005-2.858,0-2.858h3.886c-0.006,0,0,2.858,0,2.858c0,0.359-0.309,0.675-0.713,0.675H9.753
		v0.146h3.28v-0.146h-0.388c-0.399,0-0.713-0.32-0.713-0.675v-2.901v-3.466c0-0.349,0.309-0.674,0.713-0.674h0.388L13.034,24.224
		L13.034,24.224z M18.655,30.138c-0.044-0.754-0.369-1.181-0.786-1.539c-0.807-0.697-2.589-1.708-2.869-2.045
		c-0.138-0.165-0.378-0.436-0.326-0.876c0.066-0.578,0.418-0.904,1.14-1.044c0.753-0.146,1.258,0.18,1.517,0.415
		c0.259,0.236,0.629,0.877,0.741,1.73h0.124v-2.63h-0.124c-0.033,0.271-0.112,0.371-0.229,0.438c-0.121,0.069-0.332,0.09-0.523,0
		c-0.19-0.089-0.752-0.482-1.493-0.482c-0.742,0-1.259,0.27-1.641,0.629c-0.382,0.359-0.562,0.898-0.562,1.371
		c0,0.551,0.262,0.895,0.473,1.134c0.16,0.183,0.73,0.634,1.358,1.051c0.498,0.331,1.023,0.675,1.393,0.915
		c0.59,0.387,0.652,0.799,0.678,1.081c0.069,0.786-0.569,1.42-1.155,1.515c-0.735,0.118-1.499-0.146-1.903-0.612
		c-0.247-0.284-0.646-0.785-0.759-1.64h-0.123v2.774h0.123c0.034-0.271,0.123-0.416,0.27-0.506c0.125-0.077,0.335-0.084,0.495-0.022
		c0.264,0.102,0.988,0.551,1.831,0.551c0.741,0,1.295-0.307,1.685-0.657C18.392,31.324,18.683,30.61,18.655,30.138z M23.85,28.144
		c1.039-0.31,1.465-1.383,1.247-2.235c-0.28-1.101-1.461-1.449-1.865-1.527c-0.24-0.047-0.612-0.112-1.297-0.112
		c-0.848,0-2.034,0-2.849,0v0.146h0.473c0.297,0,0.64,0.258,0.64,0.64v6.396c0,0.381-0.343,0.636-0.643,0.636h-0.473v0.146
		c0.923,0,2.07,0.003,2.978,0.002c0.509,0,1.023,0.002,1.226-0.024c0.445-0.059,1.822-0.307,2.134-1.527
		C25.685,29.642,25.278,28.634,23.85,28.144z M33.297,30.488l-0.168-0.112c-1.057,1.425-2.441,1.454-3.066,1.358
		c-0.733-0.111-1.685-0.545-2.179-1.584c-0.61-1.279-0.383-2.798-0.023-3.685c0.292-0.722,0.876-1.472,2.012-1.674
		c0.757-0.135,1.392,0.104,1.818,0.373c0.257,0.162,0.437,0.345,0.528,0.436c0.326,0.314,0.584,0.798,0.662,1.482l0.164-0.006
		l-0.115-2.712h-0.139c0,0.264-0.127,0.398-0.283,0.466c-0.156,0.067-0.32,0.048-0.608-0.117c-0.579-0.332-1.257-0.533-2.286-0.433
		c-1.376,0.135-2.421,1.033-2.921,1.938c-0.291,0.526-0.469,1.427-0.466,2.235c0.005,0.91,0.375,1.955,0.859,2.506
		c0.457,0.521,1.46,1.401,3.055,1.415C31.387,32.386,32.477,31.644,33.297,30.488z M39.686,24.232l-4,4.001l4,4.002V24.232z
		 M51.692,28.233l-4.002-4.001v8.002l-4.002-4.001l-4.001,4.001h8.003v0.001L51.692,28.233z"/>
</g>
</svg>